<?xml version="1.0" encoding="UTF-8"?>
<svg width="149px" height="57px" viewBox="0 0 149 57" version="1.1" xmlns="http://www.w3.org/2000/svg" xmlns:xlink="http://www.w3.org/1999/xlink">
    <title>pluvo copy 2</title>
    <g id="Page-1" stroke="none" stroke-width="1" fill="none" fill-rule="evenodd">
        <g id="1" transform="translate(-39.000000, -223.000000)" fill="#1F2532" fill-rule="nonzero">
            <g id="Group-2" transform="translate(14.000000, 218.000000)">
                <g id="pluvo-copy-2" transform="translate(25.300000, 5.698053)">
                    <path d="M17.94,12.96 C13.92,12.96 10.98,14.34 9,16.62 L9,13.8 L0,13.8 L0,55.8 L9,55.8 L9,40.98 C10.98,43.26 13.92,44.64 17.94,44.64 C25.8,44.64 32.28,37.74 32.28,28.8 C32.28,19.86 25.8,12.96 17.94,12.96 Z M16.14,36.12 C12,36.12 9,33.3 9,28.8 C9,24.3 12,21.48 16.14,21.48 C20.28,21.48 23.28,24.3 23.28,28.8 C23.28,33.3 20.28,36.12 16.14,36.12 Z" id="p"></path>
                    <polygon id="l" points="37.38 43.8 46.38 43.8 46.38 0 37.38 0"></polygon>
                    <path d="M72.36,13.8 L72.36,30.18 C72.36,34.44 70.08,36.36 66.78,36.36 C63.9,36.36 61.56,34.62 61.56,30.9 L61.56,13.8 L52.56,13.8 L52.56,32.22 C52.56,40.32 57.72,44.64 63.78,44.64 C67.74,44.64 70.74,43.2 72.36,40.98 L72.36,43.8 L81.36,43.8 L81.36,13.8 L72.36,13.8 Z" id="u"></path>
                    <polygon id="v" points="107.1 13.8 100.86 32.82 94.62 13.8 84.66 13.8 95.76 43.8 105.96 43.8 117.06 13.8"></polygon>
                    <path d="M132.36,44.64 C141.18,44.64 148.26,37.74 148.26,28.8 C148.26,19.86 141.18,12.96 132.36,12.96 C123.54,12.96 116.46,19.86 116.46,28.8 C116.46,37.74 123.54,44.64 132.36,44.64 Z M132.36,35.88 C128.46,35.88 125.46,33.06 125.46,28.8 C125.46,24.54 128.46,21.72 132.36,21.72 C136.26,21.72 139.26,24.54 139.26,28.8 C139.26,33.06 136.26,35.88 132.36,35.88 Z" id="o"></path>
                </g>
            </g>
        </g>
    </g>
</svg>